<svg xmlns="http://www.w3.org/2000/svg" width="800" height="229" viewBox="0 0 800 229" role="img" aria-label="DwarFS CI • Compression CPU time (lower is better)">
  <style>
    :root {
      color: var(--fgColor-default, #24292f);
      font-family: ui-monospace, SFMono-Regular, Menlo, Consolas, monospace;
    }
    @media (prefers-color-scheme: dark) {
      :root { color: var(--fgColor-default, #c9d1d9); }
    }
    .t { fill: currentColor; font-size: 14px; dominant-baseline: middle; }
    .title { font-weight: 600; font-size: 18px; dominant-baseline: hanging; }
    .axis { stroke: currentColor; stroke-width: 1; }
    .grid { stroke: currentColor; stroke-width: 1; opacity: .2; }
    .bar { fill: currentColor; opacity: .8; }
    .unit { opacity: .8; font-size: 14px; }
  </style>
  <rect x="0" y="0" width="800" height="229" fill="none"/>
  <text x="93" y="20" class="t title">DwarFS CI • Compression CPU time (lower is better)</text>

  <line x1="93" y1="185" x2="772" y2="185" class="axis"/>
  <line x1="93" y1="48" x2="93" y2="185" class="axis"/>
  <line x1="93.00" y1="48" x2="93.00" y2="185" class="grid"/>
  <text x="93.00" y="201" class="t" text-anchor="middle">0</text>
  <line x1="228.80" y1="48" x2="228.80" y2="185" class="grid"/>
  <text x="228.80" y="201" class="t" text-anchor="middle">1000</text>
  <line x1="364.60" y1="48" x2="364.60" y2="185" class="grid"/>
  <text x="364.60" y="201" class="t" text-anchor="middle">2000</text>
  <line x1="500.40" y1="48" x2="500.40" y2="185" class="grid"/>
  <text x="500.40" y="201" class="t" text-anchor="middle">3000</text>
  <line x1="636.20" y1="48" x2="636.20" y2="185" class="grid"/>
  <text x="636.20" y="201" class="t" text-anchor="middle">4000</text>
  <line x1="772.00" y1="48" x2="772.00" y2="185" class="grid"/>
  <text x="772.00" y="201" class="t" text-anchor="middle">5000</text>
  <text x="772" y="215" class="t unit" text-anchor="end">minutes</text>
  <rect class="bar" x="93.00" y="54.85" width="113.39" height="31.97" rx="3" ry="3"/>
  <text x="83.00" y="63.83" class="t" text-anchor="end">.tar.gz</text>
  <text x="83.00" y="77.83" class="t" text-anchor="end">(pigz)</text>
  <text x="212.39" y="70.83" class="t">835</text>
  <rect class="bar" x="93.00" y="100.52" width="348.60" height="31.97" rx="3" ry="3"/>
  <text x="83.00" y="109.50" class="t" text-anchor="end">7zip</text>
  <text x="83.00" y="123.50" class="t" text-anchor="end">(-mx=7)</text>
  <text x="447.60" y="116.50" class="t">2567</text>
  <rect class="bar" x="93.00" y="146.18" width="254.22" height="31.97" rx="3" ry="3"/>
  <text x="83.00" y="155.17" class="t" text-anchor="end">DwarFS</text>
  <text x="83.00" y="169.17" class="t" text-anchor="end">(zstd)</text>
  <text x="353.22" y="162.17" class="t">1872</text>
</svg>