<svg xmlns="http://www.w3.org/2000/svg" width="800" height="229" viewBox="0 0 800 229" role="img" aria-label="DwarFS CI • Compression ratio (higher is better)">
  <style>
    :root {
      color: var(--fgColor-default, #24292f);
      font-family: ui-monospace, SFMono-Regular, Menlo, Consolas, monospace;
    }
    @media (prefers-color-scheme: dark) {
      :root { color: var(--fgColor-default, #c9d1d9); }
    }
    .t { fill: currentColor; font-size: 14px; dominant-baseline: middle; }
    .title { font-weight: 600; font-size: 18px; dominant-baseline: hanging; }
    .axis { stroke: currentColor; stroke-width: 1; }
    .grid { stroke: currentColor; stroke-width: 1; opacity: .2; }
    .bar { fill: currentColor; opacity: .8; }
    .unit { opacity: .8; font-size: 14px; }
  </style>
  <rect x="0" y="0" width="800" height="229" fill="none"/>
  <text x="107" y="20" class="t title">DwarFS CI • Compression ratio (higher is better)</text>

  <line x1="107" y1="185" x2="772" y2="185" class="axis"/>
  <line x1="107" y1="48" x2="107" y2="185" class="axis"/>
  <line x1="107.00" y1="48" x2="107.00" y2="185" class="grid"/>
  <text x="107.00" y="201" class="t" text-anchor="middle">0.0</text>
  <line x1="240.00" y1="48" x2="240.00" y2="185" class="grid"/>
  <text x="240.00" y="201" class="t" text-anchor="middle">4.0</text>
  <line x1="373.00" y1="48" x2="373.00" y2="185" class="grid"/>
  <text x="373.00" y="201" class="t" text-anchor="middle">8.0</text>
  <line x1="506.00" y1="48" x2="506.00" y2="185" class="grid"/>
  <text x="506.00" y="201" class="t" text-anchor="middle">12.0</text>
  <line x1="639.00" y1="48" x2="639.00" y2="185" class="grid"/>
  <text x="639.00" y="201" class="t" text-anchor="middle">16.0</text>
  <line x1="772.00" y1="48" x2="772.00" y2="185" class="grid"/>
  <text x="772.00" y="201" class="t" text-anchor="middle">20.0</text>
  <rect class="bar" x="107.00" y="54.85" width="108.24" height="31.97" rx="3" ry="3"/>
  <text x="97.00" y="63.83" class="t" text-anchor="end">.tar.gz</text>
  <text x="97.00" y="77.83" class="t" text-anchor="end">(pigz -9)</text>
  <text x="221.24" y="70.83" class="t">3.3</text>
  <rect class="bar" x="107.00" y="100.52" width="257.63" height="31.97" rx="3" ry="3"/>
  <text x="97.00" y="109.50" class="t" text-anchor="end">7zip</text>
  <text x="97.00" y="123.50" class="t" text-anchor="end">(-mx=7)</text>
  <text x="370.63" y="116.50" class="t">7.7</text>
  <rect class="bar" x="107.00" y="146.18" width="540.27" height="31.97" rx="3" ry="3"/>
  <text x="97.00" y="155.17" class="t" text-anchor="end">DwarFS</text>
  <text x="97.00" y="169.17" class="t" text-anchor="end">(zstd)</text>
  <text x="653.27" y="162.17" class="t">16.2</text>
</svg>