<svg xmlns="http://www.w3.org/2000/svg" width="800" height="274" viewBox="0 0 800 274" role="img" aria-label="Perl • Compression speed (higher is better)">
  <style>
    :root {
      color: var(--fgColor-default, #24292f);
      font-family: ui-monospace, SFMono-Regular, Menlo, Consolas, monospace;
    }
    @media (prefers-color-scheme: dark) {
      :root { color: var(--fgColor-default, #c9d1d9); }
    }
    .t { fill: currentColor; font-size: 14px; dominant-baseline: middle; }
    .title { font-weight: 600; font-size: 18px; dominant-baseline: hanging; }
    .axis { stroke: currentColor; stroke-width: 1; }
    .grid { stroke: currentColor; stroke-width: 1; opacity: .2; }
    .bar { fill: currentColor; opacity: .8; }
    .unit { opacity: .8; font-size: 14px; }
  </style>
  <rect x="0" y="0" width="800" height="274" fill="none"/>
  <text x="93" y="20" class="t title">Perl • Compression speed (higher is better)</text>

  <line x1="93" y1="230" x2="772" y2="230" class="axis"/>
  <line x1="93" y1="48" x2="93" y2="230" class="axis"/>
  <line x1="93.00" y1="48" x2="93.00" y2="230" class="grid"/>
  <text x="93.00" y="246" class="t" text-anchor="middle">0.0</text>
  <line x1="228.80" y1="48" x2="228.80" y2="230" class="grid"/>
  <text x="228.80" y="246" class="t" text-anchor="middle">100.0</text>
  <line x1="364.60" y1="48" x2="364.60" y2="230" class="grid"/>
  <text x="364.60" y="246" class="t" text-anchor="middle">200.0</text>
  <line x1="500.40" y1="48" x2="500.40" y2="230" class="grid"/>
  <text x="500.40" y="246" class="t" text-anchor="middle">300.0</text>
  <line x1="636.20" y1="48" x2="636.20" y2="230" class="grid"/>
  <text x="636.20" y="246" class="t" text-anchor="middle">400.0</text>
  <line x1="772.00" y1="48" x2="772.00" y2="230" class="grid"/>
  <text x="772.00" y="246" class="t" text-anchor="middle">500.0</text>
  <text x="772" y="260" class="t unit" text-anchor="end">MiB/s</text>
  <rect class="bar" x="93.00" y="54.83" width="220.86" height="31.85" rx="3" ry="3"/>
  <text x="83.00" y="63.75" class="t" text-anchor="end">.tar.gz</text>
  <text x="83.00" y="77.75" class="t" text-anchor="end">(pigz)</text>
  <text x="319.86" y="70.75" class="t">162.6</text>
  <rect class="bar" x="93.00" y="100.33" width="46.94" height="31.85" rx="3" ry="3"/>
  <text x="83.00" y="109.25" class="t" text-anchor="end">7zip</text>
  <text x="83.00" y="123.25" class="t" text-anchor="end">(-mx=7)</text>
  <text x="145.94" y="116.25" class="t">34.6</text>
  <rect class="bar" x="93.00" y="145.82" width="496.53" height="31.85" rx="3" ry="3"/>
  <text x="83.00" y="154.75" class="t" text-anchor="end">DwarFS</text>
  <text x="83.00" y="168.75" class="t" text-anchor="end">(xz)</text>
  <text x="595.53" y="161.75" class="t">365.6</text>
  <rect class="bar" x="93.00" y="191.32" width="217.95" height="31.85" rx="3" ry="3"/>
  <text x="83.00" y="200.25" class="t" text-anchor="end">DwarFS</text>
  <text x="83.00" y="214.25" class="t" text-anchor="end">(zstd)</text>
  <text x="316.95" y="207.25" class="t">160.5</text>
</svg>