<svg xmlns="http://www.w3.org/2000/svg" width="800" height="250" viewBox="0 0 800 250" role="img" aria-label="Perl • Compression ratio (higher is better)">
  <style>
    :root {
      color: var(--fgColor-default, #24292f);
      font-family: ui-monospace, SFMono-Regular, Menlo, Consolas, monospace;
    }
    @media (prefers-color-scheme: dark) {
      :root { color: var(--fgColor-default, #c9d1d9); }
    }
    .t { fill: currentColor; font-size: 12px; dominant-baseline: middle; }
    .title { font-weight: 600; font-size: 14px; dominant-baseline: hanging; }
    .axis { stroke: currentColor; stroke-width: 1; }
    .grid { stroke: currentColor; stroke-width: 1; opacity: .2; }
    .bar { fill: currentColor; opacity: .8; }
    .unit { opacity: .7; font-size: 11px; }
  </style>
  <rect x="0" y="0" width="800" height="250" fill="none"/>
  <text x="93" y="20" class="t title">Perl • Compression ratio (higher is better)</text>

  <line x1="93" y1="206" x2="772" y2="206" class="axis"/>
  <line x1="93" y1="48" x2="93" y2="206" class="axis"/>
  <line x1="93.00" y1="48" x2="93.00" y2="206" class="grid"/>
  <text x="93.00" y="222" class="t" text-anchor="middle">0.0</text>
  <line x1="228.80" y1="48" x2="228.80" y2="206" class="grid"/>
  <text x="228.80" y="222" class="t" text-anchor="middle">40.0</text>
  <line x1="364.60" y1="48" x2="364.60" y2="206" class="grid"/>
  <text x="364.60" y="222" class="t" text-anchor="middle">80.0</text>
  <line x1="500.40" y1="48" x2="500.40" y2="206" class="grid"/>
  <text x="500.40" y="222" class="t" text-anchor="middle">120.0</text>
  <line x1="636.20" y1="48" x2="636.20" y2="206" class="grid"/>
  <text x="636.20" y="222" class="t" text-anchor="middle">160.0</text>
  <line x1="772.00" y1="48" x2="772.00" y2="206" class="grid"/>
  <text x="772.00" y="222" class="t" text-anchor="middle">200.0</text>
  <rect class="bar" x="93.00" y="52.34" width="13.25" height="30.81" rx="3" ry="3"/>
  <text x="83.00" y="60.75" class="t" text-anchor="end">.tar.gz</text>
  <text x="83.00" y="74.75" class="t" text-anchor="end">(pigz)</text>
  <text x="112.25" y="67.75" class="t">3.9</text>
  <rect class="bar" x="93.00" y="91.84" width="132.26" height="30.81" rx="3" ry="3"/>
  <text x="83.00" y="100.25" class="t" text-anchor="end">7zip</text>
  <text x="83.00" y="114.25" class="t" text-anchor="end">(-mx=7)</text>
  <text x="231.26" y="107.25" class="t">39.0</text>
  <rect class="bar" x="93.00" y="131.34" width="520.09" height="30.81" rx="3" ry="3"/>
  <text x="83.00" y="139.75" class="t" text-anchor="end">DwarFS</text>
  <text x="83.00" y="153.75" class="t" text-anchor="end">(xz)</text>
  <text x="619.09" y="146.75" class="t">153.2</text>
  <rect class="bar" x="93.00" y="170.84" width="458.04" height="30.81" rx="3" ry="3"/>
  <text x="83.00" y="179.25" class="t" text-anchor="end">DwarFS</text>
  <text x="83.00" y="193.25" class="t" text-anchor="end">(zstd)</text>
  <text x="557.04" y="186.25" class="t">134.9</text>
</svg>