<svg xmlns="http://www.w3.org/2000/svg" width="800" height="366" viewBox="0 0 800 366" role="img" aria-label="Perl • Decompression CPU time (lower is better)">
  <style>
    :root {
      color: var(--fgColor-default, #24292f);
      font-family: ui-monospace, SFMono-Regular, Menlo, Consolas, monospace;
    }
    @media (prefers-color-scheme: dark) {
      :root { color: var(--fgColor-default, #c9d1d9); }
    }
    .t { fill: currentColor; font-size: 14px; dominant-baseline: middle; }
    .title { font-weight: 600; font-size: 18px; dominant-baseline: hanging; }
    .axis { stroke: currentColor; stroke-width: 1; }
    .grid { stroke: currentColor; stroke-width: 1; opacity: .2; }
    .bar { fill: currentColor; opacity: .8; }
    .unit { opacity: .8; font-size: 14px; }
  </style>
  <rect x="0" y="0" width="800" height="366" fill="none"/>
  <text x="149" y="20" class="t title">Perl • Decompression CPU time (lower is better)</text>

  <line x1="149" y1="322" x2="772" y2="322" class="axis"/>
  <line x1="149" y1="48" x2="149" y2="322" class="axis"/>
  <line x1="149.00" y1="48" x2="149.00" y2="322" class="grid"/>
  <text x="149.00" y="338" class="t" text-anchor="middle">0</text>
  <line x1="273.60" y1="48" x2="273.60" y2="322" class="grid"/>
  <text x="273.60" y="338" class="t" text-anchor="middle">100</text>
  <line x1="398.20" y1="48" x2="398.20" y2="322" class="grid"/>
  <text x="398.20" y="338" class="t" text-anchor="middle">200</text>
  <line x1="522.80" y1="48" x2="522.80" y2="322" class="grid"/>
  <text x="522.80" y="338" class="t" text-anchor="middle">300</text>
  <line x1="647.40" y1="48" x2="647.40" y2="322" class="grid"/>
  <text x="647.40" y="338" class="t" text-anchor="middle">400</text>
  <line x1="772.00" y1="48" x2="772.00" y2="322" class="grid"/>
  <text x="772.00" y="338" class="t" text-anchor="middle">500</text>
  <text x="772" y="352" class="t unit" text-anchor="end">seconds</text>
  <rect class="bar" x="149.00" y="54.85" width="279.10" height="31.97" rx="3" ry="3"/>
  <text x="139.00" y="63.83" class="t" text-anchor="end">.tar.gz</text>
  <text x="139.00" y="77.83" class="t" text-anchor="end">(pigz -9)</text>
  <text x="434.10" y="70.83" class="t">224</text>
  <rect class="bar" x="149.00" y="100.52" width="100.93" height="31.97" rx="3" ry="3"/>
  <text x="139.00" y="109.50" class="t" text-anchor="end">.tar.zst</text>
  <text x="139.00" y="123.50" class="t" text-anchor="end">(--long=31 -22)</text>
  <text x="255.93" y="116.50" class="t">81</text>
  <rect class="bar" x="149.00" y="146.18" width="184.41" height="31.97" rx="3" ry="3"/>
  <text x="139.00" y="155.17" class="t" text-anchor="end">7zip</text>
  <text x="139.00" y="169.17" class="t" text-anchor="end">(-mx=7)</text>
  <text x="339.41" y="162.17" class="t">148</text>
  <rect class="bar" x="149.00" y="191.85" width="105.91" height="31.97" rx="3" ry="3"/>
  <text x="139.00" y="200.83" class="t" text-anchor="end">SquashFS</text>
  <text x="139.00" y="214.83" class="t" text-anchor="end">(1M,zstd)</text>
  <text x="260.91" y="207.83" class="t">85</text>
  <rect class="bar" x="149.00" y="237.52" width="178.18" height="31.97" rx="3" ry="3"/>
  <text x="139.00" y="246.50" class="t" text-anchor="end">DwarFS</text>
  <text x="139.00" y="260.50" class="t" text-anchor="end">(lzma)</text>
  <text x="333.18" y="253.50" class="t">143</text>
  <rect class="bar" x="149.00" y="283.18" width="148.27" height="31.97" rx="3" ry="3"/>
  <text x="139.00" y="292.17" class="t" text-anchor="end">DwarFS</text>
  <text x="139.00" y="306.17" class="t" text-anchor="end">(zstd)</text>
  <text x="303.27" y="299.17" class="t">119</text>
</svg>