<svg xmlns="http://www.w3.org/2000/svg" width="800" height="320" viewBox="0 0 800 320" role="img" aria-label="Perl • Decompression CPU time (lower is better)">
  <style>
    :root {
      color: var(--fgColor-default, #24292f);
      font-family: ui-monospace, SFMono-Regular, Menlo, Consolas, monospace;
    }
    @media (prefers-color-scheme: dark) {
      :root { color: var(--fgColor-default, #c9d1d9); }
    }
    .t { fill: currentColor; font-size: 14px; dominant-baseline: middle; }
    .title { font-weight: 600; font-size: 18px; dominant-baseline: hanging; }
    .axis { stroke: currentColor; stroke-width: 1; }
    .grid { stroke: currentColor; stroke-width: 1; opacity: .2; }
    .bar { fill: currentColor; opacity: .8; }
    .unit { opacity: .8; font-size: 14px; }
  </style>
  <rect x="0" y="0" width="800" height="320" fill="none"/>
  <text x="149" y="20" class="t title">Perl • Decompression CPU time (lower is better)</text>

  <line x1="149" y1="276" x2="772" y2="276" class="axis"/>
  <line x1="149" y1="48" x2="149" y2="276" class="axis"/>
  <line x1="149.00" y1="48" x2="149.00" y2="276" class="grid"/>
  <text x="149.00" y="292" class="t" text-anchor="middle">0</text>
  <line x1="273.60" y1="48" x2="273.60" y2="276" class="grid"/>
  <text x="273.60" y="292" class="t" text-anchor="middle">100</text>
  <line x1="398.20" y1="48" x2="398.20" y2="276" class="grid"/>
  <text x="398.20" y="292" class="t" text-anchor="middle">200</text>
  <line x1="522.80" y1="48" x2="522.80" y2="276" class="grid"/>
  <text x="522.80" y="292" class="t" text-anchor="middle">300</text>
  <line x1="647.40" y1="48" x2="647.40" y2="276" class="grid"/>
  <text x="647.40" y="292" class="t" text-anchor="middle">400</text>
  <line x1="772.00" y1="48" x2="772.00" y2="276" class="grid"/>
  <text x="772.00" y="292" class="t" text-anchor="middle">500</text>
  <text x="772" y="306" class="t unit" text-anchor="end">seconds</text>
  <rect class="bar" x="149.00" y="54.84" width="279.10" height="31.92" rx="3" ry="3"/>
  <text x="139.00" y="63.80" class="t" text-anchor="end">.tar.gz</text>
  <text x="139.00" y="77.80" class="t" text-anchor="end">(pigz -9)</text>
  <text x="434.10" y="70.80" class="t">224</text>
  <rect class="bar" x="149.00" y="100.44" width="100.93" height="31.92" rx="3" ry="3"/>
  <text x="139.00" y="109.40" class="t" text-anchor="end">.tar.zst</text>
  <text x="139.00" y="123.40" class="t" text-anchor="end">(--long=31 -22)</text>
  <text x="255.93" y="116.40" class="t">81</text>
  <rect class="bar" x="149.00" y="146.04" width="184.41" height="31.92" rx="3" ry="3"/>
  <text x="139.00" y="155.00" class="t" text-anchor="end">7zip</text>
  <text x="139.00" y="169.00" class="t" text-anchor="end">(-mx=7)</text>
  <text x="339.41" y="162.00" class="t">148</text>
  <rect class="bar" x="149.00" y="191.64" width="133.32" height="31.92" rx="3" ry="3"/>
  <text x="139.00" y="200.60" class="t" text-anchor="end">DwarFS</text>
  <text x="139.00" y="214.60" class="t" text-anchor="end">(xz)</text>
  <text x="288.32" y="207.60" class="t">107</text>
  <rect class="bar" x="149.00" y="237.24" width="112.14" height="31.92" rx="3" ry="3"/>
  <text x="139.00" y="246.20" class="t" text-anchor="end">DwarFS</text>
  <text x="139.00" y="260.20" class="t" text-anchor="end">(zstd)</text>
  <text x="267.14" y="253.20" class="t">90</text>
</svg>