<svg xmlns="http://www.w3.org/2000/svg" width="800" height="274" viewBox="0 0 800 274" role="img" aria-label="Sonniss • Compression ratio (higher is better)">
  <style>
    :root {
      color: var(--fgColor-default, #24292f);
      font-family: ui-monospace, SFMono-Regular, Menlo, Consolas, monospace;
    }
    @media (prefers-color-scheme: dark) {
      :root { color: var(--fgColor-default, #c9d1d9); }
    }
    .t { fill: currentColor; font-size: 14px; dominant-baseline: middle; }
    .title { font-weight: 600; font-size: 18px; dominant-baseline: hanging; }
    .axis { stroke: currentColor; stroke-width: 1; }
    .grid { stroke: currentColor; stroke-width: 1; opacity: .2; }
    .bar { fill: currentColor; opacity: .8; }
    .unit { opacity: .8; font-size: 14px; }
  </style>
  <rect x="0" y="0" width="800" height="274" fill="none"/>
  <text x="142" y="20" class="t title">Sonniss • Compression ratio (higher is better)</text>

  <line x1="142" y1="230" x2="772" y2="230" class="axis"/>
  <line x1="142" y1="48" x2="142" y2="230" class="axis"/>
  <line x1="142.00" y1="48" x2="142.00" y2="230" class="grid"/>
  <text x="142.00" y="246" class="t" text-anchor="middle">0.00</text>
  <line x1="268.00" y1="48" x2="268.00" y2="230" class="grid"/>
  <text x="268.00" y="246" class="t" text-anchor="middle">0.40</text>
  <line x1="394.00" y1="48" x2="394.00" y2="230" class="grid"/>
  <text x="394.00" y="246" class="t" text-anchor="middle">0.80</text>
  <line x1="520.00" y1="48" x2="520.00" y2="230" class="grid"/>
  <text x="520.00" y="246" class="t" text-anchor="middle">1.20</text>
  <line x1="646.00" y1="48" x2="646.00" y2="230" class="grid"/>
  <text x="646.00" y="246" class="t" text-anchor="middle">1.60</text>
  <line x1="772.00" y1="48" x2="772.00" y2="230" class="grid"/>
  <text x="772.00" y="246" class="t" text-anchor="middle">2.00</text>
  <rect class="bar" x="142.00" y="54.83" width="355.11" height="31.85" rx="3" ry="3"/>
  <text x="132.00" y="63.75" class="t" text-anchor="end">.tar.gz</text>
  <text x="132.00" y="77.75" class="t" text-anchor="end">(pigz -9)</text>
  <text x="503.11" y="70.75" class="t">1.13</text>
  <rect class="bar" x="142.00" y="100.33" width="429.13" height="31.85" rx="3" ry="3"/>
  <text x="132.00" y="109.25" class="t" text-anchor="end">7zip</text>
  <text x="132.00" y="123.25" class="t" text-anchor="end">(-mx=7)</text>
  <text x="577.13" y="116.25" class="t">1.36</text>
  <rect class="bar" x="142.00" y="145.82" width="356.95" height="31.85" rx="3" ry="3"/>
  <text x="132.00" y="154.75" class="t" text-anchor="end">SquashFS</text>
  <text x="132.00" y="168.75" class="t" text-anchor="end">(1M,zstd)</text>
  <text x="504.95" y="161.75" class="t">1.13</text>
  <rect class="bar" x="142.00" y="191.32" width="581.54" height="31.85" rx="3" ry="3"/>
  <text x="132.00" y="200.25" class="t" text-anchor="end">DwarFS</text>
  <text x="132.00" y="214.25" class="t" text-anchor="end">(--categorize)</text>
  <text x="729.54" y="207.25" class="t">1.85</text>
</svg>