<svg xmlns="http://www.w3.org/2000/svg" width="800" height="274" viewBox="0 0 800 274" role="img" aria-label="Sonniss • Decompression CPU time (lower is better)">
  <style>
    :root {
      color: var(--fgColor-default, #24292f);
      font-family: ui-monospace, SFMono-Regular, Menlo, Consolas, monospace;
    }
    @media (prefers-color-scheme: dark) {
      :root { color: var(--fgColor-default, #c9d1d9); }
    }
    .t { fill: currentColor; font-size: 14px; dominant-baseline: middle; }
    .title { font-weight: 600; font-size: 18px; dominant-baseline: hanging; }
    .axis { stroke: currentColor; stroke-width: 1; }
    .grid { stroke: currentColor; stroke-width: 1; opacity: .2; }
    .bar { fill: currentColor; opacity: .8; }
    .unit { opacity: .8; font-size: 14px; }
  </style>
  <rect x="0" y="0" width="800" height="274" fill="none"/>
  <text x="142" y="20" class="t title">Sonniss • Decompression CPU time (lower is better)</text>

  <line x1="142" y1="230" x2="772" y2="230" class="axis"/>
  <line x1="142" y1="48" x2="142" y2="230" class="axis"/>
  <line x1="142.00" y1="48" x2="142.00" y2="230" class="grid"/>
  <text x="142.00" y="246" class="t" text-anchor="middle">0.0</text>
  <line x1="268.00" y1="48" x2="268.00" y2="230" class="grid"/>
  <text x="268.00" y="246" class="t" text-anchor="middle">40.0</text>
  <line x1="394.00" y1="48" x2="394.00" y2="230" class="grid"/>
  <text x="394.00" y="246" class="t" text-anchor="middle">80.0</text>
  <line x1="520.00" y1="48" x2="520.00" y2="230" class="grid"/>
  <text x="520.00" y="246" class="t" text-anchor="middle">120.0</text>
  <line x1="646.00" y1="48" x2="646.00" y2="230" class="grid"/>
  <text x="646.00" y="246" class="t" text-anchor="middle">160.0</text>
  <line x1="772.00" y1="48" x2="772.00" y2="230" class="grid"/>
  <text x="772.00" y="246" class="t" text-anchor="middle">200.0</text>
  <text x="772" y="260" class="t unit" text-anchor="end">seconds</text>
  <rect class="bar" x="142.00" y="54.83" width="56.07" height="31.85" rx="3" ry="3"/>
  <text x="132.00" y="63.75" class="t" text-anchor="end">.tar.gz</text>
  <text x="132.00" y="77.75" class="t" text-anchor="end">(pigz -9)</text>
  <text x="204.07" y="70.75" class="t">17.8</text>
  <rect class="bar" x="142.00" y="100.33" width="352.80" height="31.85" rx="3" ry="3"/>
  <text x="132.00" y="109.25" class="t" text-anchor="end">7zip</text>
  <text x="132.00" y="123.25" class="t" text-anchor="end">(-mx=7)</text>
  <text x="500.80" y="116.25" class="t">112.0</text>
  <rect class="bar" x="142.00" y="145.82" width="14.49" height="31.85" rx="3" ry="3"/>
  <text x="132.00" y="154.75" class="t" text-anchor="end">SquashFS</text>
  <text x="132.00" y="168.75" class="t" text-anchor="end">(1M,zstd)</text>
  <text x="162.49" y="161.75" class="t">4.6</text>
  <rect class="bar" x="142.00" y="191.32" width="28.82" height="31.85" rx="3" ry="3"/>
  <text x="132.00" y="200.25" class="t" text-anchor="end">DwarFS</text>
  <text x="132.00" y="214.25" class="t" text-anchor="end">(--categorize)</text>
  <text x="176.82" y="207.25" class="t">9.2</text>
</svg>