<svg xmlns="http://www.w3.org/2000/svg" width="800" height="229" viewBox="0 0 800 229" role="img" aria-label="Sonniss • Mount time (lower is better)">
  <style>
    :root {
      color: var(--fgColor-default, #24292f);
      font-family: ui-monospace, SFMono-Regular, Menlo, Consolas, monospace;
    }
    @media (prefers-color-scheme: dark) {
      :root { color: var(--fgColor-default, #c9d1d9); }
    }
    .t { fill: currentColor; font-size: 14px; dominant-baseline: middle; }
    .title { font-weight: 600; font-size: 18px; dominant-baseline: hanging; }
    .axis { stroke: currentColor; stroke-width: 1; }
    .grid { stroke: currentColor; stroke-width: 1; opacity: .2; }
    .bar { fill: currentColor; opacity: .8; }
    .unit { opacity: .8; font-size: 14px; }
  </style>
  <rect x="0" y="0" width="800" height="229" fill="none"/>
  <text x="142" y="20" class="t title">Sonniss • Mount time (lower is better)</text>

  <line x1="142" y1="185" x2="772" y2="185" class="axis"/>
  <line x1="142" y1="48" x2="142" y2="185" class="axis"/>
  <line x1="142.00" y1="48" x2="142.00" y2="185" class="grid"/>
  <text x="142.00" y="201" class="t" text-anchor="middle">0.000</text>
  <line x1="268.00" y1="48" x2="268.00" y2="185" class="grid"/>
  <text x="268.00" y="201" class="t" text-anchor="middle">4.000</text>
  <line x1="394.00" y1="48" x2="394.00" y2="185" class="grid"/>
  <text x="394.00" y="201" class="t" text-anchor="middle">8.000</text>
  <line x1="520.00" y1="48" x2="520.00" y2="185" class="grid"/>
  <text x="520.00" y="201" class="t" text-anchor="middle">12.000</text>
  <line x1="646.00" y1="48" x2="646.00" y2="185" class="grid"/>
  <text x="646.00" y="201" class="t" text-anchor="middle">16.000</text>
  <line x1="772.00" y1="48" x2="772.00" y2="185" class="grid"/>
  <text x="772.00" y="201" class="t" text-anchor="middle">20.000</text>
  <text x="772" y="215" class="t unit" text-anchor="end">seconds</text>
  <rect class="bar" x="142.00" y="54.85" width="428.40" height="31.97" rx="3" ry="3"/>
  <text x="132.00" y="63.83" class="t" text-anchor="end">.tar.gz</text>
  <text x="132.00" y="77.83" class="t" text-anchor="end">(pigz -9)</text>
  <text x="576.40" y="70.83" class="t">13.600</text>
  <rect class="bar" x="142.00" y="100.52" width="0.44" height="31.97" rx="3" ry="3"/>
  <text x="132.00" y="109.50" class="t" text-anchor="end">7zip</text>
  <text x="132.00" y="123.50" class="t" text-anchor="end">(-mx=7)</text>
  <text x="148.44" y="116.50" class="t">0.014</text>
  <rect class="bar" x="142.00" y="146.18" width="0.25" height="31.97" rx="3" ry="3"/>
  <text x="132.00" y="155.17" class="t" text-anchor="end">DwarFS</text>
  <text x="132.00" y="169.17" class="t" text-anchor="end">(--categorize)</text>
  <text x="148.25" y="162.17" class="t">0.008</text>
</svg>